<svg xmlns="http://www.w3.org/2000/svg" viewBox="0 0 1600 900" role="img" aria-label="Sentieri e percorsi del territorio">
  <defs>
    <linearGradient id="sky" x1="0" x2="0" y1="0" y2="1">
      <stop offset="0" stop-color="#C4E0F5"/>
      <stop offset="1" stop-color="#EEF6FB"/>
    </linearGradient>
  </defs>
  <rect width="1600" height="900" fill="url(#sky)"/>
  <circle cx="1200" cy="190" r="110" fill="#F6E8C2"/>
  <path d="M0 620 L320 430 L640 660 L980 480 L1300 640 L1600 520 L1600 900 L0 900 Z" fill="#B4C9D2"/>
  <path d="M0 720 L260 540 L600 740 L980 580 L1320 720 L1600 580 L1600 900 L0 900 Z" fill="#8AA3B2"/>
  <path d="M0 800 L380 660 L760 830 L1120 700 L1600 790 L1600 900 L0 900 Z" fill="#5F7684"/>
  <path d="M200 860 C320 780 520 760 700 700" fill="none" stroke="#F1EDE5" stroke-width="8" stroke-linecap="round" opacity="0.8"/>
  <path d="M820 760 C980 700 1200 700 1420 640" fill="none" stroke="#F1EDE5" stroke-width="8" stroke-linecap="round" opacity="0.8"/>
</svg>
