<svg xmlns="http://www.w3.org/2000/svg" viewBox="0 0 1600 900" role="img" aria-label="Paesaggi del territorio">
  <defs>
    <linearGradient id="sky" x1="0" x2="0" y1="0" y2="1">
      <stop offset="0" stop-color="#D8C9B3"/>
      <stop offset="1" stop-color="#F6F1EA"/>
    </linearGradient>
    <linearGradient id="hill" x1="0" x2="1" y1="0" y2="1">
      <stop offset="0" stop-color="#B6C5A1"/>
      <stop offset="1" stop-color="#8FA686"/>
    </linearGradient>
  </defs>
  <rect width="1600" height="900" fill="url(#sky)"/>
  <circle cx="320" cy="180" r="110" fill="#F2E0B5"/>
  <path d="M0 610 L280 440 L620 630 L950 470 L1300 640 L1600 520 L1600 900 L0 900 Z" fill="#C6B58E"/>
  <path d="M0 700 L240 520 L600 720 L980 560 L1280 690 L1600 560 L1600 900 L0 900 Z" fill="url(#hill)"/>
  <path d="M0 790 L360 640 L720 820 L1080 670 L1600 780 L1600 900 L0 900 Z" fill="#7C8B6E"/>
  <rect y="760" width="1600" height="140" fill="#9A704E" opacity="0.35"/>
</svg>
