<svg xmlns="http://www.w3.org/2000/svg" viewBox="0 0 1600 900" role="img" aria-label="Panorama collinare di Asolo e Monte Grappa">
  <defs>
    <linearGradient id="sky" x1="0" x2="0" y1="0" y2="1">
      <stop offset="0" stop-color="#B6D7F0"/>
      <stop offset="1" stop-color="#F5F8FB"/>
    </linearGradient>
    <linearGradient id="mist" x1="0" x2="1" y1="0" y2="1">
      <stop offset="0" stop-color="#9FBFA8" stop-opacity="0.9"/>
      <stop offset="1" stop-color="#7AA18B" stop-opacity="0.9"/>
    </linearGradient>
  </defs>
  <rect width="1600" height="900" fill="url(#sky)"/>
  <circle cx="1240" cy="180" r="120" fill="#F3E2B8"/>
  <path d="M0 620 L300 430 L640 650 L980 470 L1280 610 L1600 450 L1600 900 L0 900 Z" fill="#BCD2C0"/>
  <path d="M0 700 L260 520 L620 750 L980 560 L1320 700 L1600 520 L1600 900 L0 900 Z" fill="url(#mist)"/>
  <path d="M0 780 L380 610 L760 820 L1120 660 L1600 780 L1600 900 L0 900 Z" fill="#6C8576"/>
  <rect y="740" width="1600" height="160" fill="#A87A4E" opacity="0.3"/>
</svg>
